# xmcd
#
# Track frame offsets: 
#        150
#        15635
#        32199
#        47855
#        66748
#        83000
#        99652
#        118728
#        137622
#        149680
#        168934
#
# Disc length: 2447 seconds
#
# Revision: 0
# Processed by: cddbd v1.5.2PL0 Copyright (c) Steve Scherf et al.
# Submitted via: ExactAudioCopyFreeDBPlugin 1.0
#
DISCID=9f098d0b
DTITLE=Hymn for Her - Drive Til U Die
DYEAR=2016
DGENRE=Country
TTITLE0=Devil's Train
TTITLE1=Mazzy Star
TTITLE2=Paraguay
TTITLE3=Seas of Croatia
TTITLE4=Hi Ho Silver
TTITLE5=Onebigachinheart
TTITLE6=Milkweed
TTITLE7=Honeycomb
TTITLE8=Shine
TTITLE9=Acetylene
TTITLE10=The Road Song
EXTD=
EXTT0=
EXTT1=
EXTT2=
EXTT3=
EXTT4=
EXTT5=
EXTT6=
EXTT7=
EXTT8=
EXTT9=
EXTT10=
PLAYORDER=
